<svg height="40" viewBox="0 0 161 40" width="161" xmlns="http://www.w3.org/2000/svg" xmlns:xlink="http://www.w3.org/1999/xlink"><mask id="a" fill="#fff"><path d="m0 0h162v40h-162z" fill="#fff" fill-rule="evenodd"/></mask><g fill="none" fill-rule="evenodd"><path d="m162 0v40h-162v-40zm-2 2h-158v36h158z" mask="url(#a)" transform="translate(-1)"/><g fill-rule="nonzero"><path d="m144.94103 13.3028933c-.108657.122993-.266576.1910194-.430598.1854884h-.258358c-.164022.005531-.321941-.0624954-.430598-.1854884l-7.949503-11.43403453c-.152366-.21861132.052997-.44384723.430598-.44384723h3.378539c.165684-.00685573.325026.06423527.430598.19211298l4.193362 6.20061201h.099369l4.193363-6.20061201c.107398-.12545357.265498-.19599025.430598-.19211298h3.378538c.384226 0 .582964.22523591.430598.44384723z" fill="#fff"/><rect fill="#eb5647" height="6.266858" rx=".99" transform="matrix(-1 0 0 -1 288.543894 28.381176)" width="32.023246" x="128.260324" y="11.057159"/><path d="m130.684923 39.2248963h27.1608c.420746 0 .761827-.3410817.761827-.7618273v-17.5021549l-28.711083-3.6368974v21.1324277c-.00373.2084552.078759.4092322.228054.5547636.149295.1455315.352113.2228684.560402.2136883z" fill="#eb5647"/><path d="m158.634049 13.1571524c-.003599-.4192458-.342582-.7582284-.761828-.7618273h-27.1608c-.420746 0-.761827.3410817-.761827.7618273v4.1668643h28.710953z" fill="#eb5647"/><g fill="#fff"><path d="m27.3215153 11.964727h-4.8756949c-.3056675.0037332-.5860613.1704538-.735329.4372227l-7.0883065 14.4084734h-.2583588l-7.0883065-14.4084734c-.14808511-.2647451-.42541872-.4311452-.7287044-.4372227h-5.72364186c-.66245854 0-.99368782.5167177-.73532898 1.0268108l13.41478564 26.5712124c.1416541.2708957.4230179.439714.7287044.4372498h.430598c.3056864.0024642.5870503-.1663541.7287044-.4372498l11.9242539-23.477531z"/><path d="m21.8496077 12.7265544c.0168776-.4062321.342346-.7317006.7485781-.7485782h4.7365786c.4062321.0168776.7317006.3423461.7485782.7485782v26.1273651c-.0171091.4086814-.3463865.7350704-.7552027.7485782h-4.7365787c-.403644-.0202082-.7253341-.3447705-.7419535-.7485782z"/><path d="m83.9882195 12.7265544c0-.1985353.0788678-.3889391.2192534-.5293247.1403857-.1403857.3307895-.2192535.5293247-.2192535h4.683582c.4127778.0068176.7477696.3359835.7618273.7485782v21.0728064h23.3317901c.413428 0 .748578.3351498.748578.7485781l-1.656146 4.3059806c0 .4134283-.33515.7485782-.748578.7485782h-27.1210534c-.4134283 0-.7485781-.3351499-.7485781-.7485782z"/><path d="m111.824728 11.1763455c5.750553-.0160065 10.944423 3.4339112 13.159295 8.7408369 2.214871 5.3069258 1.014468 11.425525-3.041365 15.5022063-4.055834 4.0766813-10.168198 5.3084383-15.48641 3.1208043-5.318211-2.187634-8.7947125-7.3637486-8.8082882-13.1143083-.0174633-3.7719455 1.4681465-7.3955423 4.1284982-10.0695683 2.660351-2.674026 6.276283-4.1781944 10.04827-4.1799709zm0 22.6032698c3.40316.0186224 6.480801-2.0194468 7.79181-5.1600046 1.31101-3.1405578.595863-6.7619066-1.810571-9.1683406s-6.027783-3.121581-9.168341-1.8105716c-3.140558 1.3110095-5.178627 4.3886509-5.160004 7.7918108.032567 4.5938257 3.746683 8.310891 8.340481 8.347106z"/><path d="m31.0842798 12.2827071c.0178306-.4030168.3518111-.7194194.7552028-.715492h.7552027c.145966.0003714.2860986.0573744.3908506.1590269l15.5942742 15.0046861h.0397475v-14.0043737c0-.1985353.0788678-.3889391.2192535-.5293247.1403856-.1403857.3307894-.2192535.5293246-.2192535h4.7365787c.4119288.0035979.7449803.3366493.7486091.7485782v26.5579632c.0017368.1891387-.0721623.3711391-.2052859.5055069-.1331236.1343677-.3144287.2099483-.5035757.2099483h-.6624586c-.1856333-.0240521-.3628106-.0921972-.5167176-.1987376l-15.6008988-15.6737692h-.0397476v14.7264535c0 .4134283-.3351498.7485782-.7485781.7485782h-4.6968311c-.4088163-.0135078-.7380937-.3398968-.7552028-.7485782z"/><path d="m82.4910631 38.0987168-12.3416027-13.1034301 11.3214166-11.5665263c.5299668-.5962127.0463721-1.4640334-.8744453-1.4640334h-5.0876816c-.3425039.0267939-.6664034.1666066-.9208174.3974752l-10.7450777 10.9636889v-10.4138483c-.0032447-.5116075-.4095077-.9295615-.9208174-.9473158h-4.378851c-.5143389.0108552-.9245548.4328759-.9208427.9473158v25.8822554c0 .4939188.4004256.8943191.8943444.8943191h4.4053493c.4939188 0 .8943191-.4004003.8943191-.8943191v-11.9242538l11.1756757 12.3945994c.2529285.181475.5565239.2788109.8678207.2782326h5.6838943c.9473157.0198738 1.4772826-.8479469.9473157-1.4441596z"/></g><path d="m21.1871491 3.75024105c-.0080861-1.00387968.4052507-1.9651281 1.1394287-2.64983419 1.4903316-1.46720915 3.8822073-1.46720915 5.3725388 0 .7190508.69301715 1.1214953 1.65121847 1.1129304 2.64983419.0065185.98854587-.3963301 1.93571968-1.1129304 2.61671126-1.4903315 1.46720914-3.8822072 1.46720914-5.3725388 0-.7311078-.67303649-1.1447615-1.62299683-1.1394287-2.61671126z" fill="#eb5647"/></g></g></svg>